<svg width="128" height="128" viewBox="0 0 128 128" fill="none" xmlns="http://www.w3.org/2000/svg">
  <g filter="url(#filter0_d_228_71)">
    <circle cx="64" cy="60" r="60" fill="white" fill-opacity="0.88" shape-rendering="crispEdges"/>
  </g>
  <g filter="url(#filter1_d_228_71)">
    <circle cx="63.9097" cy="59.5205" r="45" fill="#C9DDE8" fill-opacity="0.9" shape-rendering="crispEdges"/>
    <circle cx="63.9097" cy="59.5205" r="44.5" stroke="white" shape-rendering="crispEdges"/>
  </g>
<!--  <g filter="url(#filter2_d_228_71)">-->
<!--    <path-->
<!--      d="M43.4935 60.0408L44.876 59.4327L44.8654 59.4069L44.8537 59.3816L43.4935 60.0408ZM42.1123 54.4823C41.3381 54.2117 40.4769 54.6291 40.1887 55.4147L35.4921 68.2162C35.2039 69.0017 35.5978 69.8579 36.372 70.1286C37.1461 70.3992 38.0074 69.9818 38.2956 69.1962L42.4704 57.8171L53.6844 61.7374C54.4586 62.008 55.3198 61.5906 55.608 60.805C55.8962 60.0194 55.5023 59.1632 54.7281 58.8926L42.1123 54.4823ZM52.0327 74.0585L53.0765 72.9554L53.0765 72.9554L52.0327 74.0585ZM50.8934 72.9706L51.9371 71.8675L50.8934 72.9706ZM66.3072 77.5932L66.5017 79.0796L66.3072 77.5932ZM64.4117 77.8901L64.2172 76.4037L64.4117 77.8901ZM77.3831 71.6079L78.4291 72.657L78.4291 72.657L77.3831 71.6079ZM72.9799 75.0649L73.7236 76.3513L73.7236 76.3513L72.9799 75.0649ZM72.5609 75.3167L71.8171 74.0302L71.8171 74.0302L72.5609 75.3167ZM47.1042 68.0224L45.7885 68.7704L47.1042 68.0224ZM45.8506 65.7229L44.4681 66.3311L44.4979 66.4029L44.535 66.471L45.8506 65.7229ZM69.4163 76.8034L69.8839 78.2204L69.8839 78.2204L69.4163 76.8034ZM58.8425 77.7072L59.205 76.2391L59.205 76.2391L58.8425 77.7072ZM44.8537 59.3816L42.9507 55.2454L40.2303 56.564L42.1333 60.7001L44.8537 59.3816ZM53.0765 72.9554L51.9371 71.8675L49.8496 74.0737L50.989 75.1616L53.0765 72.9554ZM66.1126 76.1068L64.2172 76.4037L64.6062 79.3765L66.5017 79.0796L66.1126 76.1068ZM78.5486 68.3283L76.337 70.5588L78.4291 72.657L80.6407 70.4265L78.5486 68.3283ZM72.2361 73.7784L71.8171 74.0302L73.3046 76.6031L73.7236 76.3513L72.2361 73.7784ZM48.4198 67.2744L47.1663 64.9749L44.535 66.471L45.7885 68.7704L48.4198 67.2744ZM47.2332 65.1148L44.876 59.4327L42.111 60.649L44.4681 66.3311L47.2332 65.1148ZM76.337 70.5588C75.1071 71.7992 73.729 72.8811 72.2361 73.7784L73.7236 76.3513C75.4366 75.3218 77.0178 74.0804 78.4291 72.657L76.337 70.5588ZM68.9488 75.3863C68.0257 75.7147 67.0762 75.9559 66.1126 76.1068L66.5017 79.0796C67.6507 78.8996 68.7831 78.6119 69.8839 78.2204L68.9488 75.3863ZM59.205 76.2391C56.896 75.7162 54.7813 74.5831 53.0765 72.9554L50.989 75.1616C53.0727 77.1512 55.6576 78.5362 58.4799 79.1753L59.205 76.2391ZM69.8839 78.2204C71.0727 77.7976 72.2188 77.2557 73.3046 76.6031L71.8171 74.0302C70.9066 74.5774 69.9456 75.0318 68.9488 75.3863L69.8839 78.2204ZM58.4799 79.1753C60.4819 79.6287 62.5602 79.697 64.6062 79.3765L64.2172 76.4037C62.5433 76.6659 60.843 76.6101 59.205 76.2391L58.4799 79.1753ZM51.9371 71.8675C50.5361 70.5298 49.3502 68.9812 48.4198 67.2744L45.7885 68.7704C46.8628 70.7411 48.2321 72.5292 49.8496 74.0737L51.9371 71.8675Z"-->
<!--      fill="white"/>-->
<!--    <path-->
<!--      d="M81.2205 60.5802L79.8275 61.1655L79.8377 61.1915L79.8489 61.217L81.2205 60.5802ZM82.5003 66.1625C83.2692 66.446 84.1377 66.0427 84.4401 65.2619L89.3676 52.5369C89.67 51.756 89.2918 50.8932 88.5228 50.6098C87.7539 50.3263 86.8854 50.7295 86.583 51.5104L82.203 62.8215L71.0648 58.7154C70.2959 58.4319 69.4274 58.8351 69.125 59.616C68.8226 60.3969 69.2009 61.2597 69.9698 61.5432L82.5003 66.1625ZM72.9387 46.4181L74.0021 45.3322L74.0021 45.3322L72.9387 46.4181ZM74.0586 47.5258L72.9952 48.6117L72.9952 48.6117L74.0586 47.5258ZM58.7362 42.6478L58.5686 41.1581L58.7362 42.6478ZM60.6356 42.3821L60.8032 43.8718L60.6356 42.3821ZM47.5581 48.4517L48.5848 49.5179L48.5848 49.5179L47.5581 48.4517ZM52.0211 45.0668L52.7414 46.3655L52.0211 45.0668ZM52.4446 44.8217L53.1649 46.1204L52.4446 44.8217ZM77.7558 52.5367L79.0845 51.8104L79.0845 51.8104L77.7558 52.5367ZM78.9674 54.8579L80.3604 54.2725L80.3319 54.2003L80.2961 54.1316L78.9674 54.8579ZM55.6143 43.3865L55.1724 41.9617L55.1724 41.9617L55.6143 43.3865ZM66.1992 42.6568L66.5883 41.1946L66.5883 41.1946L66.1992 42.6568ZM79.8489 61.217L81.6762 65.3854L84.4194 64.1118L82.5922 59.9433L79.8489 61.217ZM71.8752 47.504L72.9952 48.6117L75.122 46.4399L74.0021 45.3322L71.8752 47.504ZM58.9038 44.1375L60.8032 43.8718L60.4681 40.8924L58.5686 41.1581L58.9038 44.1375ZM46.3339 51.7127L48.5848 49.5179L46.5313 47.3854L44.2803 49.5801L46.3339 51.7127ZM52.7414 46.3655L53.1649 46.1204L51.7243 43.5229L51.3008 43.768L52.7414 46.3655ZM76.427 53.263L77.6386 55.5842L80.2961 54.1316L79.0845 51.8104L76.427 53.263ZM77.5743 55.4433L79.8275 61.1655L82.6136 59.9948L80.3604 54.2725L77.5743 55.4433ZM48.5848 49.5179C49.8364 48.2976 51.2331 47.2383 52.7414 46.3655L51.3008 43.768C49.5701 44.7695 47.9674 45.9851 46.5313 47.3854L48.5848 49.5179ZM56.0561 44.8114C56.9846 44.4982 57.938 44.2726 58.9038 44.1375L58.5686 41.1581C57.4169 41.3192 56.2798 41.5882 55.1724 41.9617L56.0561 44.8114ZM65.8101 44.1191C68.1083 44.6801 70.2011 45.8481 71.8752 47.504L74.0021 45.3322C71.9557 43.3081 69.3975 41.8804 66.5883 41.1946L65.8101 44.1191ZM55.1724 41.9617C53.9766 42.365 52.8214 42.8881 51.7243 43.5229L53.1649 46.1204C54.0848 45.5881 55.0534 45.1495 56.0561 44.8114L55.1724 41.9617ZM66.5883 41.1946C64.5953 40.708 62.5191 40.6055 60.4681 40.8924L60.8032 43.8718C62.4811 43.6371 64.1797 43.721 65.8101 44.1191L66.5883 41.1946ZM72.9952 48.6117C74.371 49.9726 75.5281 51.5408 76.427 53.263L79.0845 51.8104C78.0466 49.8219 76.7106 48.0112 75.122 46.4399L72.9952 48.6117Z"-->
<!--      fill="white"/>-->
<!--  </g>-->
  <defs>
    <filter id="filter0_d_228_71" x="0" y="0" width="128" height="128" filterUnits="userSpaceOnUse"
            color-interpolation-filters="sRGB">
      <feFlood flood-opacity="0" result="BackgroundImageFix"/>
      <feColorMatrix in="SourceAlpha" type="matrix" values="0 0 0 0 0 0 0 0 0 0 0 0 0 0 0 0 0 0 127 0"
                     result="hardAlpha"/>
      <feOffset dy="4"/>
      <feGaussianBlur stdDeviation="2"/>
      <feComposite in2="hardAlpha" operator="out"/>
      <feColorMatrix type="matrix" values="0 0 0 0 0 0 0 0 0 0 0 0 0 0 0 0 0 0 0.25 0"/>
      <feBlend mode="normal" in2="BackgroundImageFix" result="effect1_dropShadow_228_71"/>
      <feBlend mode="normal" in="SourceGraphic" in2="effect1_dropShadow_228_71" result="shape"/>
    </filter>
    <filter id="filter1_d_228_71" x="14.9097" y="14.5205" width="98" height="98" filterUnits="userSpaceOnUse"
            color-interpolation-filters="sRGB">
      <feFlood flood-opacity="0" result="BackgroundImageFix"/>
      <feColorMatrix in="SourceAlpha" type="matrix" values="0 0 0 0 0 0 0 0 0 0 0 0 0 0 0 0 0 0 127 0"
                     result="hardAlpha"/>
      <feOffset dy="4"/>
      <feGaussianBlur stdDeviation="2"/>
      <feComposite in2="hardAlpha" operator="out"/>
      <feColorMatrix type="matrix" values="0 0 0 0 0 0 0 0 0 0 0 0 0 0 0 0 0 0 0.25 0"/>
      <feBlend mode="normal" in2="BackgroundImageFix" result="effect1_dropShadow_228_71"/>
      <feBlend mode="normal" in="SourceGraphic" in2="effect1_dropShadow_228_71" result="shape"/>
    </filter>
    <filter id="filter2_d_228_71" x="31.3977" y="40.7334" width="62.074" height="46.8413" filterUnits="userSpaceOnUse"
            color-interpolation-filters="sRGB">
      <feFlood flood-opacity="0" result="BackgroundImageFix"/>
      <feColorMatrix in="SourceAlpha" type="matrix" values="0 0 0 0 0 0 0 0 0 0 0 0 0 0 0 0 0 0 127 0"
                     result="hardAlpha"/>
      <feOffset dy="4"/>
      <feGaussianBlur stdDeviation="2"/>
      <feComposite in2="hardAlpha" operator="out"/>
      <feColorMatrix type="matrix" values="0 0 0 0 0 0 0 0 0 0 0 0 0 0 0 0 0 0 0.25 0"/>
      <feBlend mode="normal" in2="BackgroundImageFix" result="effect1_dropShadow_228_71"/>
      <feBlend mode="normal" in="SourceGraphic" in2="effect1_dropShadow_228_71" result="shape"/>
    </filter>
  </defs>
</svg>
